# xmcd
#
# Track frame offsets:
#	150
#	24242
#	42543
#	60586
#	76800
#	91787
#	109289
#	125931
#	145904
#	161469
#
# Disc length: 2355 seconds
#
# Revision: 0
# Processed by: cddbd v1.5.1PL0 Copyright (c) Steve Scherf et al.
# Submitted via: audiograbber 1.83.01
#
DISCID=7f09310a
DTITLE=Daniels, Charlie - Super Hits - Daniels, Charlie - Super Hits
DYEAR=1993
DGENRE=Country
TTITLE0=Uneasy Rider
TTITLE1=Long Haired Country Boy
TTITLE2=The South's Gonna Do It
TTITLE3=The Devil Went Down to Georgia
TTITLE4=In America
TTITLE5=Still In Saigon
TTITLE6=Drinkin' My Baby Goodbye
TTITLE7=Uneasy Rider '88
TTITLE8=Boogie Woogie Fiddle Country Blues
TTITLE9=Simple Man
EXTD=
EXTT0=
EXTT1=
EXTT2=
EXTT3=
EXTT4=
EXTT5=
EXTT6=
EXTT7=
EXTT8=
EXTT9=
PLAYORDER=
